
<svg width="459" height="485" viewBox="0 0 459 485" fill="none" xmlns="http://www.w3.org/2000/svg">
<path d="M371.9 36.1002C408.5 66.0002 426.1 118.8 440 170.7C453.8 222.5 464 273.4 454.3 322.4C444.6 371.3 415.1 418.4 373.4 446.2C331.8 474 277.9 482.5 222.5 484.5C167.2 486.5 110.4 482.1 73.4002 452.7C36.5002 423.4 19.4002 369.2 9.30021 317.6C-0.799788 266 -3.89979 216.9 6.20021 168C16.2002 119 39.6002 70.2002 78.1002 40.9002C116.6 11.6002 170.3 1.80018 225 0.400179C279.6 -0.899821 335.3 6.20019 371.9 36.1002Z" fill="rgba(0, 0, 0, 0.4)"/>
</svg>
